{
  "accessors": [
    {
      "bufferView": 2,
      "componentType": 5126,
      "count": 150,
      "max": [
        2.410269021987915,
        1.0410000085830688,
        0.39264100790023804
      ],
      "min": [
        -2.410269021987915,
        0.9589999914169312,
        -1.2076870203018188
      ],
      "type": "VEC3"
    },
    {
      "bufferView": 2,
      "byteOffset": 1800,
      "componentType": 5126,
      "count": 150,
      "max": [
        0.9083458781242371,
        0.986290454864502,
        0.9338319301605225
      ],
      "min": [
        -0.9083458781242371,
        -0.986290454864502,
        -0.9349827170372009
      ],
      "type": "VEC3"
    },
    {
      "bufferView": 1,
      "componentType": 5126,
      "count": 150,
      "max": [
        1.373075008392334,
        1.0
      ],
      "min": [
        0.0,
        0.0
      ],
      "type": "VEC2"
    },
    {
      "bufferView": 0,
      "componentType": 5125,
      "count": 744,
      "type": "SCALAR"
    },
    {
      "bufferView": 2,
      "byteOffset": 3600,
      "componentType": 5126,
      "count": 355,
      "max": [
        2.377901077270508,
        1.0232839584350586,
        1.3112620115280151
      ],
      "min": [
        -2.377901077270508,
        -0.05330299958586693,
        -1.0842829942703247
      ],
      "type": "VEC3"
    },
    {
      "bufferView": 2,
      "byteOffset": 7860,
      "componentType": 5126,
      "count": 355,
      "max": [
        0.9999964237213135,
        1.0,
        1.0
      ],
      "min": [
        -0.9999973773956299,
        -1.0,
        -1.0
      ],
      "type": "VEC3"
    },
    {
      "bufferView": 1,
      "byteOffset": 1200,
      "componentType": 5126,
      "count": 355,
      "max": [
        1.0,
        1.0
      ],
      "min": [
        0.0,
        0.0
      ],
      "type": "VEC2"
    },
    {
      "bufferView": 0,
      "byteOffset": 2976,
      "componentType": 5125,
      "count": 1650,
      "type": "SCALAR"
    },
    {
      "bufferView": 2,
      "byteOffset": 12120,
      "componentType": 5126,
      "count": 736,
      "max": [
        1.5923060178756714,
        0.44391700625419617,
        -0.9692549705505371
      ],
      "min": [
        -2.0627639293670654,
        -0.3357590138912201,
        -8.444869041442871
      ],
      "type": "VEC3"
    },
    {
      "bufferView": 2,
      "byteOffset": 20952,
      "componentType": 5126,
      "count": 736,
      "max": [
        0.9998593330383301,
        1.0,
        0.9151099324226379
      ],
      "min": [
        -0.9990600347518921,
        -1.0,
        -0.9994053840637207
      ],
      "type": "VEC3"
    },
    {
      "bufferView": 1,
      "byteOffset": 4040,
      "componentType": 5126,
      "count": 736,
      "max": [
        0.9925040006637573,
        0.9894869923591614
      ],
      "min": [
        0.007366999983787537,
        0.009790999814867973
      ],
      "type": "VEC2"
    },
    {
      "bufferView": 0,
      "byteOffset": 9576,
      "componentType": 5125,
      "count": 1146,
      "type": "SCALAR"
    },
    {
      "bufferView": 2,
      "byteOffset": 29784,
      "componentType": 5126,
      "count": 575,
      "max": [
        2.3922390937805176,
        0.3161360025405884,
        1.339900016784668
      ],
      "min": [
        -2.3922390937805176,
        -1.0376739501953125,
        -7.159815788269043
      ],
      "type": "VEC3"
    },
    {
      "bufferView": 2,
      "byteOffset": 36684,
      "componentType": 5126,
      "count": 575,
      "max": [
        0.9988616704940796,
        1.0,
        1.0
      ],
      "min": [
        -0.9987890124320984,
        -1.0,
        -1.0
      ],
      "type": "VEC3"
    },
    {
      "bufferView": 1,
      "byteOffset": 9928,
      "componentType": 5126,
      "count": 575,
      "max": [
        1.0,
        1.0
      ],
      "min": [
        0.0,
        0.0
      ],
      "type": "VEC2"
    },
    {
      "bufferView": 0,
      "byteOffset": 14160,
      "componentType": 5125,
      "count": 2112,
      "type": "SCALAR"
    }
  ],
  "asset": {
    "extras": {
      "author": "dudecon (https://sketchfab.com/dudecon)",
      "license": "CC-BY-4.0 (http://creativecommons.org/licenses/by/4.0/)",
      "source": "https://sketchfab.com/3d-models/hangers-and-pants-37b92fbde5ca45448c50fc2cb6a376d8",
      "title": "Hangers and Pants"
    },
    "generator": "Sketchfab-12.68.0",
    "version": "2.0"
  },
  "bufferViews": [
    {
      "buffer": 0,
      "byteLength": 22608,
      "name": "floatBufferViews",
      "target": 34963
    },
    {
      "buffer": 0,
      "byteLength": 14528,
      "byteOffset": 22608,
      "byteStride": 8,
      "name": "floatBufferViews",
      "target": 34962
    },
    {
      "buffer": 0,
      "byteLength": 43584,
      "byteOffset": 37136,
      "byteStride": 12,
      "name": "floatBufferViews",
      "target": 34962
    }
  ],
  "buffers": [
    {
      "byteLength": 80720,
      "uri": "scene.bin"
    }
  ],
  "images": [
    {
      "uri": "textures/Pants_baseColor.jpeg"
    }
  ],
  "materials": [
    {
      "doubleSided": true,
      "name": "Metal",
      "pbrMetallicRoughness": {
        "baseColorFactor": [
          0.233016,
          0.233016,
          0.233016,
          1.0
        ],
        "metallicFactor": 0.9137360232,
        "roughnessFactor": 0.3543600922
      }
    },
    {
      "doubleSided": true,
      "name": "Pants",
      "pbrMetallicRoughness": {
        "baseColorTexture": {
          "index": 0
        },
        "metallicFactor": 0.0
      }
    },
    {
      "name": "Plastic",
      "pbrMetallicRoughness": {
        "baseColorFactor": [
          0.015995,
          0.015995,
          0.015995,
          1.0
        ],
        "metallicFactor": 0.0,
        "roughnessFactor": 0.0997419073
      }
    },
    {
      "doubleSided": true,
      "name": "Velvet",
      "pbrMetallicRoughness": {
        "baseColorFactor": [
          0.21223,
          0.20746,
          0.143503,
          1.0
        ],
        "metallicFactor": 0.0,
        "roughnessFactor": 0.7494487262
      }
    }
  ],
  "meshes": [
    {
      "name": "Object_0",
      "primitives": [
        {
          "attributes": {
            "NORMAL": 1,
            "POSITION": 0,
            "TEXCOORD_0": 2
          },
          "indices": 3,
          "material": 3,
          "mode": 4
        }
      ]
    },
    {
      "name": "Object_1",
      "primitives": [
        {
          "attributes": {
            "NORMAL": 5,
            "POSITION": 4,
            "TEXCOORD_0": 6
          },
          "indices": 7,
          "material": 0,
          "mode": 4
        }
      ]
    },
    {
      "name": "Object_2",
      "primitives": [
        {
          "attributes": {
            "NORMAL": 9,
            "POSITION": 8,
            "TEXCOORD_0": 10
          },
          "indices": 11,
          "material": 1,
          "mode": 4
        }
      ]
    },
    {
      "name": "Object_3",
      "primitives": [
        {
          "attributes": {
            "NORMAL": 13,
            "POSITION": 12,
            "TEXCOORD_0": 14
          },
          "indices": 15,
          "material": 2,
          "mode": 4
        }
      ]
    }
  ],
  "nodes": [
    {
      "children": [
        1
      ],
      "matrix": [
        1.0,
        0.0,
        0.0,
        0.0,
        0.0,
        2.220446049250313e-16,
        -1.0,
        0.0,
        0.0,
        1.0,
        2.220446049250313e-16,
        0.0,
        0.0,
        0.0,
        0.0,
        1.0
      ],
      "name": "Sketchfab_model"
    },
    {
      "children": [
        2,
        3,
        4,
        5
      ],
      "name": "Hangers Pants.obj.cleaner.materialmerger.gles"
    },
    {
      "mesh": 0,
      "name": "Object_2"
    },
    {
      "mesh": 1,
      "name": "Object_3"
    },
    {
      "mesh": 2,
      "name": "Object_4"
    },
    {
      "mesh": 3,
      "name": "Object_5"
    }
  ],
  "samplers": [
    {
      "magFilter": 9729,
      "minFilter": 9987,
      "wrapS": 10497,
      "wrapT": 10497
    }
  ],
  "scene": 0,
  "scenes": [
    {
      "name": "Sketchfab_Scene",
      "nodes": [
        0
      ]
    }
  ],
  "textures": [
    {
      "sampler": 0,
      "source": 0
    }
  ]
}
