{
  "accessors": [
    {
      "bufferView": 2,
      "componentType": 5126,
      "count": 12619,
      "max": [
        35.37153244018555,
        32.56413269042969,
        94.04796600341797
      ],
      "min": [
        -34.219364166259766,
        -37.46901321411133,
        42.485897064208984
      ],
      "type": "VEC3"
    },
    {
      "bufferView": 2,
      "byteOffset": 151428,
      "componentType": 5126,
      "count": 12619,
      "max": [
        0.9998363852500916,
        0.9997519850730896,
        0.9999997615814209
      ],
      "min": [
        -0.9995498657226563,
        -0.999958336353302,
        -1.0
      ],
      "type": "VEC3"
    },
    {
      "bufferView": 3,
      "componentType": 5126,
      "count": 12619,
      "max": [
        0.999795138835907,
        0.8169967532157898,
        0.9999953508377075,
        1.0
      ],
      "min": [
        -0.8717184662818909,
        -0.9928524494171143,
        -0.9998396039009094,
        1.0
      ],
      "type": "VEC4"
    },
    {
      "bufferView": 1,
      "componentType": 5126,
      "count": 12619,
      "max": [
        0.9600149989128113,
        0.9927189946174622
      ],
      "min": [
        0.0032289999071508646,
        0.002968000015243888
      ],
      "type": "VEC2"
    },
    {
      "bufferView": 0,
      "componentType": 5125,
      "count": 72576,
      "type": "SCALAR"
    },
    {
      "bufferView": 2,
      "byteOffset": 302856,
      "componentType": 5126,
      "count": 10360,
      "max": [
        34.46759796142578,
        33.30717086791992,
        44.627967834472656
      ],
      "min": [
        -34.268314361572266,
        -35.59002685546875,
        0.042757999151945114
      ],
      "type": "VEC3"
    },
    {
      "bufferView": 2,
      "byteOffset": 427176,
      "componentType": 5126,
      "count": 10360,
      "max": [
        0.9998248815536499,
        0.9998248815536499,
        0.9963206648826599
      ],
      "min": [
        -0.9998248815536499,
        -0.9998248815536499,
        -1.0
      ],
      "type": "VEC3"
    },
    {
      "bufferView": 1,
      "byteOffset": 100952,
      "componentType": 5126,
      "count": 10360,
      "max": [
        0.9968360066413879,
        0.996832013130188
      ],
      "min": [
        0.003043999895453453,
        0.0030360000673681498
      ],
      "type": "VEC2"
    },
    {
      "bufferView": 0,
      "byteOffset": 290304,
      "componentType": 5125,
      "count": 57600,
      "type": "SCALAR"
    }
  ],
  "asset": {
    "extras": {
      "author": "Aaditya Bhardwaj (https://sketchfab.com/Bhaaditya)",
      "license": "CC-BY-4.0 (http://creativecommons.org/licenses/by/4.0/)",
      "source": "https://sketchfab.com/3d-models/3d-black-leather-chair-c282805c44a440e9a019fa50d0e74bc5",
      "title": "3D Black Leather Chair"
    },
    "generator": "Sketchfab-12.66.0",
    "version": "2.0"
  },
  "bufferViews": [
    {
      "buffer": 0,
      "byteLength": 520704,
      "name": "floatBufferViews",
      "target": 34963
    },
    {
      "buffer": 0,
      "byteLength": 183832,
      "byteOffset": 520704,
      "byteStride": 8,
      "name": "floatBufferViews",
      "target": 34962
    },
    {
      "buffer": 0,
      "byteLength": 551496,
      "byteOffset": 704536,
      "byteStride": 12,
      "name": "floatBufferViews",
      "target": 34962
    },
    {
      "buffer": 0,
      "byteLength": 201904,
      "byteOffset": 1256032,
      "byteStride": 16,
      "name": "floatBufferViews",
      "target": 34962
    }
  ],
  "buffers": [
    {
      "byteLength": 1457936,
      "uri": "scene.bin"
    }
  ],
  "images": [
    {
      "uri": "textures/blinn1SG_baseColor.png"
    },
    {
      "uri": "textures/blinn1SG_metallicRoughness.png"
    },
    {
      "uri": "textures/blinn1SG_normal.png"
    },
    {
      "uri": "textures/blinn2SG_baseColor.png"
    },
    {
      "uri": "textures/blinn2SG_metallicRoughness.png"
    }
  ],
  "materials": [
    {
      "doubleSided": true,
      "name": "blinn1SG",
      "normalTexture": {
        "index": 2
      },
      "pbrMetallicRoughness": {
        "baseColorTexture": {
          "index": 0
        },
        "metallicRoughnessTexture": {
          "index": 1
        }
      }
    },
    {
      "doubleSided": true,
      "name": "blinn2SG",
      "pbrMetallicRoughness": {
        "baseColorTexture": {
          "index": 3
        },
        "metallicRoughnessTexture": {
          "index": 4
        }
      }
    }
  ],
  "meshes": [
    {
      "name": "Object_0",
      "primitives": [
        {
          "attributes": {
            "NORMAL": 1,
            "POSITION": 0,
            "TANGENT": 2,
            "TEXCOORD_0": 3
          },
          "indices": 4,
          "material": 0,
          "mode": 4
        }
      ]
    },
    {
      "name": "Object_1",
      "primitives": [
        {
          "attributes": {
            "NORMAL": 6,
            "POSITION": 5,
            "TEXCOORD_0": 7
          },
          "indices": 8,
          "material": 1,
          "mode": 4
        }
      ]
    }
  ],
  "nodes": [
    {
      "children": [
        1
      ],
      "matrix": [
        0.012318783439695835,
        0.0,
        0.0,
        0.0,
        0.0,
        2.73531940202428e-18,
        -0.012318783439695835,
        0.0,
        0.0,
        0.012318783439695835,
        2.73531940202428e-18,
        0.0,
        0.0,
        0.0,
        0.0,
        1.0
      ],
      "name": "Sketchfab_model"
    },
    {
      "children": [
        2,
        3
      ],
      "name": "vcvcv.obj.cleaner.materialmerger.gles"
    },
    {
      "mesh": 0,
      "name": "Object_2"
    },
    {
      "mesh": 1,
      "name": "Object_3"
    }
  ],
  "samplers": [
    {
      "magFilter": 9729,
      "minFilter": 9987,
      "wrapS": 10497,
      "wrapT": 10497
    }
  ],
  "scene": 0,
  "scenes": [
    {
      "name": "Sketchfab_Scene",
      "nodes": [
        0
      ]
    }
  ],
  "textures": [
    {
      "sampler": 0,
      "source": 0
    },
    {
      "sampler": 0,
      "source": 1
    },
    {
      "sampler": 0,
      "source": 2
    },
    {
      "sampler": 0,
      "source": 3
    },
    {
      "sampler": 0,
      "source": 4
    }
  ]
}
