{
  "accessors": [
    {
      "bufferView": 2,
      "componentType": 5126,
      "count": 60773,
      "max": [
        32.05024719238281,
        4.226149082183838,
        153.85597229003906
      ],
      "min": [
        -33.673439025878906,
        -9.896998405456543,
        89.29328155517578
      ],
      "type": "VEC3"
    },
    {
      "bufferView": 2,
      "byteOffset": 729276,
      "componentType": 5126,
      "count": 60773,
      "max": [
        0.9999997615814209,
        0.9999991059303284,
        0.9958730340003967
      ],
      "min": [
        -0.9999991059303284,
        -0.9999991655349731,
        -0.9797514081001282
      ],
      "type": "VEC3"
    },
    {
      "bufferView": 1,
      "componentType": 5126,
      "count": 60773,
      "max": [
        1.9896670579910278,
        2.088606834411621
      ],
      "min": [
        -0.9896669983863831,
        -1.0223970413208008
      ],
      "type": "VEC2"
    },
    {
      "bufferView": 0,
      "componentType": 5125,
      "count": 357432,
      "type": "SCALAR"
    },
    {
      "bufferView": 2,
      "byteOffset": 1458552,
      "componentType": 5126,
      "count": 60819,
      "max": [
        28.185749053955078,
        12.159174919128418,
        153.79486083984375
      ],
      "min": [
        -30.778217315673828,
        -4.713518142700195,
        87.47227478027344
      ],
      "type": "VEC3"
    },
    {
      "bufferView": 2,
      "byteOffset": 2188380,
      "componentType": 5126,
      "count": 60819,
      "max": [
        0.999994158744812,
        0.9999887943267822,
        0.9711149334907532
      ],
      "min": [
        -0.9999807476997375,
        -0.9999903440475464,
        -0.954085648059845
      ],
      "type": "VEC3"
    },
    {
      "bufferView": 1,
      "byteOffset": 486184,
      "componentType": 5126,
      "count": 60819,
      "max": [
        1.9896670579910278,
        2.088606834411621
      ],
      "min": [
        -0.9896669983863831,
        -1.0223970413208008
      ],
      "type": "VEC2"
    },
    {
      "bufferView": 0,
      "byteOffset": 1429728,
      "componentType": 5125,
      "count": 357432,
      "type": "SCALAR"
    },
    {
      "bufferView": 2,
      "byteOffset": 2918208,
      "componentType": 5126,
      "count": 8466,
      "max": [
        20.095584869384766,
        6.944654941558838,
        164.76416015625
      ],
      "min": [
        -21.691370010375977,
        -3.368720531463623,
        142.71604919433594
      ],
      "type": "VEC3"
    },
    {
      "bufferView": 2,
      "byteOffset": 3019800,
      "componentType": 5126,
      "count": 8466,
      "max": [
        1.0,
        1.0,
        1.0
      ],
      "min": [
        -1.0,
        -1.0,
        -1.0
      ],
      "type": "VEC3"
    },
    {
      "bufferView": 1,
      "byteOffset": 972736,
      "componentType": 5126,
      "count": 8466,
      "max": [
        1.0,
        1.0
      ],
      "min": [
        0.0,
        0.0
      ],
      "type": "VEC2"
    },
    {
      "bufferView": 0,
      "byteOffset": 2859456,
      "componentType": 5125,
      "count": 38664,
      "type": "SCALAR"
    }
  ],
  "asset": {
    "extras": {
      "author": "melaamory (https://sketchfab.com/melaamory)",
      "license": "CC-BY-4.0 (http://creativecommons.org/licenses/by/4.0/)",
      "source": "https://sketchfab.com/3d-models/hangers-w-clothes-6df08ef8a8504504911ef520cd870aa8",
      "title": "Hangers W Clothes"
    },
    "generator": "Sketchfab-12.67.0",
    "version": "2.0"
  },
  "bufferViews": [
    {
      "buffer": 0,
      "byteLength": 3014112,
      "name": "floatBufferViews",
      "target": 34963
    },
    {
      "buffer": 0,
      "byteLength": 1040464,
      "byteOffset": 3014112,
      "byteStride": 8,
      "name": "floatBufferViews",
      "target": 34962
    },
    {
      "buffer": 0,
      "byteLength": 3121392,
      "byteOffset": 4054576,
      "byteStride": 12,
      "name": "floatBufferViews",
      "target": 34962
    }
  ],
  "buffers": [
    {
      "byteLength": 7175968,
      "uri": "scene.bin"
    }
  ],
  "materials": [
    {
      "doubleSided": true,
      "name": "default",
      "pbrMetallicRoughness": {
        "metallicFactor": 0.0,
        "roughnessFactor": 0.6
      }
    }
  ],
  "meshes": [
    {
      "name": "Object_0",
      "primitives": [
        {
          "attributes": {
            "NORMAL": 1,
            "POSITION": 0,
            "TEXCOORD_0": 2
          },
          "indices": 3,
          "material": 0,
          "mode": 4
        }
      ]
    },
    {
      "name": "Object_1",
      "primitives": [
        {
          "attributes": {
            "NORMAL": 5,
            "POSITION": 4,
            "TEXCOORD_0": 6
          },
          "indices": 7,
          "material": 0,
          "mode": 4
        }
      ]
    },
    {
      "name": "Object_2",
      "primitives": [
        {
          "attributes": {
            "NORMAL": 9,
            "POSITION": 8,
            "TEXCOORD_0": 10
          },
          "indices": 11,
          "material": 0,
          "mode": 4
        }
      ]
    }
  ],
  "nodes": [
    {
      "children": [
        1
      ],
      "matrix": [
        1.0,
        0.0,
        0.0,
        0.0,
        0.0,
        2.220446049250313e-16,
        -1.0,
        0.0,
        0.0,
        1.0,
        2.220446049250313e-16,
        0.0,
        0.0,
        0.0,
        0.0,
        1.0
      ],
      "name": "Sketchfab_model"
    },
    {
      "children": [
        2,
        3,
        4
      ],
      "name": "hangers_w_clothes.obj.cleaner.materialmerger.gles"
    },
    {
      "mesh": 0,
      "name": "Object_2"
    },
    {
      "mesh": 1,
      "name": "Object_3"
    },
    {
      "mesh": 2,
      "name": "Object_4"
    }
  ],
  "scene": 0,
  "scenes": [
    {
      "name": "Sketchfab_Scene",
      "nodes": [
        0
      ]
    }
  ]
}
